<svg width="72" height="28" viewBox="0 0 72 28" fill="none" xmlns="http://www.w3.org/2000/svg">
<rect width="72" height="28" rx="14" fill="#F1F1F1"/>
<path d="M16.4873 11.543C17.1943 11.543 17.7686 11.7148 18.21 12.0586C18.6553 12.4023 18.9229 12.9941 19.0127 13.834H17.9873C17.9248 13.4473 17.7822 13.127 17.5596 12.873C17.3369 12.6152 16.9795 12.4863 16.4873 12.4863C15.8154 12.4863 15.335 12.8145 15.0459 13.4707C14.8584 13.8965 14.7646 14.4219 14.7646 15.0469C14.7646 15.6758 14.8975 16.2051 15.1631 16.6348C15.4287 17.0645 15.8467 17.2793 16.417 17.2793C16.8545 17.2793 17.2002 17.1465 17.4541 16.8809C17.7119 16.6113 17.8896 16.2441 17.9873 15.7793H19.0127C18.8955 16.6113 18.6025 17.2207 18.1338 17.6074C17.665 17.9902 17.0654 18.1816 16.335 18.1816C15.5146 18.1816 14.8604 17.8828 14.3721 17.2852C13.8838 16.6836 13.6396 15.9336 13.6396 15.0352C13.6396 13.9336 13.9072 13.0762 14.4424 12.4629C14.9775 11.8496 15.6592 11.543 16.4873 11.543ZM20.0967 9.39258H21.1514V18H20.0967V9.39258ZM25.2295 17.3203C25.9287 17.3203 26.4072 17.0566 26.665 16.5293C26.9268 15.998 27.0576 15.4082 27.0576 14.7598C27.0576 14.1738 26.9639 13.6973 26.7764 13.3301C26.4795 12.752 25.9678 12.4629 25.2412 12.4629C24.5967 12.4629 24.1279 12.709 23.835 13.2012C23.542 13.6934 23.3955 14.2871 23.3955 14.9824C23.3955 15.6504 23.542 16.207 23.835 16.6523C24.1279 17.0977 24.5928 17.3203 25.2295 17.3203ZM25.2705 11.543C26.0791 11.543 26.7627 11.8125 27.3213 12.3516C27.8799 12.8906 28.1592 13.6836 28.1592 14.7305C28.1592 15.7422 27.9131 16.5781 27.4209 17.2383C26.9287 17.8984 26.165 18.2285 25.1299 18.2285C24.2666 18.2285 23.5811 17.9375 23.0732 17.3555C22.5654 16.7695 22.3115 15.9844 22.3115 15C22.3115 13.9453 22.5791 13.1055 23.1143 12.4805C23.6494 11.8555 24.3682 11.543 25.2705 11.543ZM30.0459 16.0312C30.0771 16.3828 30.165 16.6523 30.3096 16.8398C30.5752 17.1797 31.0361 17.3496 31.6924 17.3496C32.083 17.3496 32.4268 17.2656 32.7236 17.0977C33.0205 16.9258 33.1689 16.6621 33.1689 16.3066C33.1689 16.0371 33.0498 15.832 32.8115 15.6914C32.6592 15.6055 32.3584 15.5059 31.9092 15.3926L31.0713 15.1816C30.5361 15.0488 30.1416 14.9004 29.8877 14.7363C29.4346 14.4512 29.208 14.0566 29.208 13.5527C29.208 12.959 29.4209 12.4785 29.8467 12.1113C30.2764 11.7441 30.8525 11.5605 31.5752 11.5605C32.5205 11.5605 33.2021 11.8379 33.6201 12.3926C33.8818 12.7441 34.0088 13.123 34.001 13.5293H33.0049C32.9854 13.291 32.9014 13.0742 32.7529 12.8789C32.5107 12.6016 32.0908 12.4629 31.4932 12.4629C31.0947 12.4629 30.792 12.5391 30.585 12.6914C30.3818 12.8438 30.2803 13.0449 30.2803 13.2949C30.2803 13.5684 30.415 13.7871 30.6846 13.9512C30.8408 14.0488 31.0713 14.1348 31.376 14.209L32.0732 14.3789C32.8311 14.5625 33.3389 14.7402 33.5967 14.9121C34.0068 15.1816 34.2119 15.6055 34.2119 16.1836C34.2119 16.7422 33.999 17.2246 33.5732 17.6309C33.1514 18.0371 32.5068 18.2402 31.6396 18.2402C30.7061 18.2402 30.0439 18.0293 29.6533 17.6074C29.2666 17.1816 29.0596 16.6562 29.0322 16.0312H30.0459ZM38.0322 11.584C38.4775 11.584 38.9092 11.6895 39.3271 11.9004C39.7451 12.1074 40.0635 12.377 40.2822 12.709C40.4932 13.0254 40.6338 13.3945 40.7041 13.8164C40.7666 14.1055 40.7979 14.5664 40.7979 15.1992H36.1982C36.2178 15.8359 36.3682 16.3477 36.6494 16.7344C36.9307 17.1172 37.3662 17.3086 37.9561 17.3086C38.5068 17.3086 38.9463 17.127 39.2744 16.7637C39.4619 16.5527 39.5947 16.3086 39.6729 16.0312H40.71C40.6826 16.2617 40.5908 16.5195 40.4346 16.8047C40.2822 17.0859 40.1104 17.3164 39.9189 17.4961C39.5986 17.8086 39.2021 18.0195 38.7295 18.1289C38.4756 18.1914 38.1885 18.2227 37.8682 18.2227C37.0869 18.2227 36.4248 17.9395 35.8818 17.373C35.3389 16.8027 35.0674 16.0059 35.0674 14.9824C35.0674 13.9746 35.3408 13.1562 35.8877 12.5273C36.4346 11.8984 37.1494 11.584 38.0322 11.584ZM39.7139 14.3613C39.6709 13.9043 39.5713 13.5391 39.415 13.2656C39.126 12.7578 38.6436 12.5039 37.9678 12.5039C37.4834 12.5039 37.0771 12.6797 36.749 13.0312C36.4209 13.3789 36.2471 13.8223 36.2275 14.3613H39.7139Z" fill="black"/>
<path fill-rule="evenodd" clip-rule="evenodd" d="M53.9692 14.3824L50.6478 17.7038L51.3549 18.4109L54.6763 15.0895L57.9977 18.4109L58.7048 17.7038L55.3834 14.3824L58.7052 11.0606L57.998 10.3535L54.6763 13.6753L51.3546 10.3535L50.6475 11.0606L53.9692 14.3824Z" fill="#303030"/>
</svg>
