<svg width="31" height="30" viewBox="0 0 31 30" fill="none" xmlns="http://www.w3.org/2000/svg">
<path d="M3.04848 6.12432L8.82872 1.84963L6.53246 0C5.10719 1.4797 3.76111 3.37043 2.57339 5.67219L3.04848 6.12432ZM7.48264 29.5529C8.82872 27.9088 9.97685 26.5524 11.2437 25.3605L10.6895 24.7439C10.4123 25.1138 10.1352 25.4427 9.85807 25.7304C8.67035 24.8672 7.99731 24.2507 7.52223 23.3464C7.83895 21.99 7.95772 19.8527 7.95772 17.592V12.9885C7.95772 11.7554 7.79936 10.6867 6.33451 9.90578L3.76111 8.50829C2.41503 10.1524 1.2669 11.5088 0 12.7008L0.554269 13.3173C0.831404 12.9474 1.10854 12.6597 1.38567 12.372C2.1379 12.7008 2.69216 13.0707 3.52357 13.7283V19.3594C3.52357 22.1544 3.36521 23.5108 2.92971 25.0316C3.87988 26.7579 5.74065 28.6076 7.48264 29.5529ZM16.9695 29.5529C18.3156 27.9088 19.4638 26.5524 20.7307 25.3605L20.1764 24.7439C19.8993 25.1138 19.6221 25.4427 19.345 25.7304C18.1573 24.8672 17.4842 24.2507 17.0091 23.3464C17.3813 22.0714 17.4386 21.5591 17.4441 18.259L17.4446 12.9885C17.4446 11.7554 17.2863 10.6867 15.8214 9.90578L13.248 8.50829C11.9019 10.1524 10.7538 11.5088 9.48691 12.7008L10.0412 13.3173C10.3183 12.9474 10.5954 12.6597 10.8726 12.372C11.6248 12.7008 12.1791 13.0707 13.0105 13.7283V19.3594C13.0105 22.1544 12.8521 23.5108 12.4166 25.0316C13.3668 26.7579 15.2276 28.6076 16.9695 29.5529ZM26.4565 29.5529C27.8025 27.9088 28.9507 26.5524 30.2176 25.3605L29.6633 24.7439C29.3862 25.1138 29.109 25.4427 28.8319 25.7304C27.6442 24.8672 26.9711 24.2507 26.496 23.3464C26.8682 22.0714 26.9255 21.5591 26.931 18.259L26.9315 17.8222C26.9315 17.7468 26.9315 17.6701 26.9315 17.592V12.9885C26.9315 11.7554 26.7732 10.6867 25.3083 9.90578L22.7349 8.50829C21.3889 10.1524 20.2407 11.5088 18.9738 12.7008L19.5281 13.3173C19.8052 12.9474 20.0824 12.6597 20.3595 12.372C21.1117 12.7008 21.666 13.0707 22.4974 13.7283V19.3594C22.4974 22.1544 22.339 23.5108 21.9035 25.0316C22.8537 26.7579 24.7145 28.6076 26.4565 29.5529Z" fill="black"/>
</svg>
